<svg width="400" height="466" viewBox="0 0 400 466" fill="none" xmlns="http://www.w3.org/2000/svg">
<path fill-rule="evenodd" clip-rule="evenodd" d="M342.265 258.599C342.265 263.355 344.806 267.751 348.932 270.129L393.333 295.728C395.396 296.917 397.698 297.512 400 297.512V401.488C397.698 401.488 395.396 402.083 393.333 403.272L348.932 428.871C344.806 431.249 342.265 435.645 342.265 440.401V466H324.402V440.401C324.402 435.645 321.86 431.249 317.735 428.871L273.333 403.272C269.208 400.894 264.125 400.894 260 403.272L215.598 428.871C211.473 431.249 208.932 435.645 208.932 440.401V466H191.068V440.401C191.068 435.645 188.527 431.249 184.402 428.871L140 403.272C135.875 400.894 130.792 400.894 126.667 403.272L82.265 428.871C78.1397 431.249 75.5983 435.645 75.5983 440.401V466H57.735V440.401C57.735 435.645 55.1937 431.249 51.0684 428.871L6.66667 403.272C4.604 402.083 2.302 401.488 0 401.488V297.512C2.302 297.512 4.604 296.917 6.66667 295.728L51.0684 270.129C55.1937 267.751 57.735 263.355 57.735 258.599V207.401C57.735 202.645 55.1937 198.249 51.0684 195.871L6.66667 170.272C4.604 169.083 2.302 168.488 0 168.488V64.5119C2.302 64.5119 4.604 63.9171 6.66667 62.728L51.0684 37.1292C55.1937 34.7508 57.735 30.3555 57.735 25.5988V0H75.5983V25.5988C75.5983 30.3555 78.1397 34.7508 82.265 37.1292L126.667 62.728C130.792 65.1063 135.875 65.1063 140 62.728L184.402 37.1292C188.527 34.7508 191.068 30.3555 191.068 25.5988V0H208.932V25.5988C208.932 30.3555 211.473 34.7508 215.598 37.1292L260 62.728C264.125 65.1063 269.208 65.1063 273.333 62.728L317.735 37.1292C321.86 34.7508 324.402 30.3555 324.402 25.5988V0H342.265V25.5988C342.265 30.3555 344.806 34.7508 348.932 37.1292L393.333 62.728C395.396 63.9171 397.698 64.5119 400 64.5119V168.488C397.698 168.488 395.396 169.083 393.333 170.272L348.932 195.871C344.806 198.249 342.265 202.645 342.265 207.401V258.599ZM324.402 207.401C324.402 202.645 321.86 198.249 317.735 195.871L273.333 170.272C269.208 167.894 264.125 167.894 260 170.272L215.598 195.871C211.473 198.249 208.932 202.645 208.932 207.401V258.599C208.932 263.355 211.473 267.751 215.598 270.129L260 295.728C264.125 298.106 269.208 298.106 273.333 295.728L317.735 270.129C321.86 267.751 324.402 263.355 324.402 258.599V207.401ZM200 284.988C197.698 284.988 195.396 285.583 193.333 286.772L148.932 312.371C144.806 314.749 142.265 319.145 142.265 323.901V375.099C142.265 379.855 144.806 384.251 148.932 386.629L193.333 412.228C195.396 413.417 197.698 414.012 200 414.012C202.302 414.012 204.604 413.417 206.667 412.228L251.068 386.629C255.194 384.251 257.735 379.855 257.735 375.099V323.901C257.735 319.145 255.194 314.749 251.068 312.371L206.667 286.772C204.604 285.583 202.302 284.988 200 284.988ZM73.3333 286.772C69.208 284.394 64.1253 284.394 60 286.772L15.5983 312.371C11.473 314.749 8.93168 319.145 8.93164 323.901V375.099C8.93167 379.855 11.473 384.251 15.5983 386.629L60 412.228C64.1253 414.606 69.208 414.606 73.3333 412.228L117.735 386.629C121.86 384.251 124.402 379.855 124.402 375.099V323.901C124.402 319.145 121.86 314.749 117.735 312.371L73.3333 286.772ZM340 286.772C335.875 284.394 330.792 284.394 326.667 286.772L282.265 312.371C278.14 314.749 275.598 319.145 275.598 323.901V375.099C275.598 379.855 278.14 384.251 282.265 386.629L326.667 412.228C330.792 414.606 335.875 414.606 340 412.228L384.402 386.629C388.527 384.251 391.068 379.855 391.068 375.099V323.901C391.068 319.145 388.527 314.749 384.402 312.371L340 286.772ZM140 170.272C135.875 167.894 130.792 167.894 126.667 170.272L82.265 195.871C78.1397 198.249 75.5983 202.645 75.5983 207.401V258.599C75.5983 263.355 78.1397 267.751 82.265 270.129L126.667 295.728C130.792 298.106 135.875 298.106 140 295.728L184.402 270.129C188.527 267.751 191.068 263.355 191.068 258.599V207.401C191.068 202.645 188.527 198.249 184.402 195.871L140 170.272ZM73.3333 53.772C69.208 51.3937 64.1253 51.3937 60 53.772L15.5983 79.3708C11.473 81.7492 8.93168 86.1445 8.93164 90.9012V142.099C8.93167 146.855 11.473 151.251 15.5983 153.629L60 179.228C64.1253 181.606 69.208 181.606 73.3333 179.228L117.735 153.629C121.86 151.251 124.402 146.855 124.402 142.099V90.9012C124.402 86.1445 121.86 81.7492 117.735 79.3708L73.3333 53.772ZM200 51.9881C197.698 51.9881 195.396 52.5829 193.333 53.772L148.932 79.3708C144.806 81.7492 142.265 86.1445 142.265 90.9012V142.099C142.265 146.855 144.806 151.251 148.932 153.629L193.333 179.228C195.396 180.417 197.698 181.012 200 181.012C202.302 181.012 204.604 180.417 206.667 179.228L251.068 153.629C255.194 151.251 257.735 146.855 257.735 142.099V90.9012C257.735 86.1445 255.194 81.7492 251.068 79.3708L206.667 53.772C204.604 52.5829 202.302 51.9881 200 51.9881ZM340 53.772C335.875 51.3937 330.792 51.3937 326.667 53.772L282.265 79.3708C278.14 81.7492 275.598 86.1445 275.598 90.9012V142.099C275.598 146.855 278.14 151.251 282.265 153.629L326.667 179.228C330.792 181.606 335.875 181.606 340 179.228L384.402 153.629C388.527 151.251 391.068 146.855 391.068 142.099V90.9012C391.068 86.1445 388.527 81.7492 384.402 79.3708L340 53.772Z" fill="url(#paint0_linear_71976_14850)"/>
<defs>
<linearGradient id="paint0_linear_71976_14850" x1="200" y1="0" x2="200" y2="466" gradientUnits="userSpaceOnUse">
<stop stop-color="#838383" stop-opacity="0.1"/>
<stop offset="1" stop-color="#848484" stop-opacity="0"/>
</linearGradient>
</defs>
</svg>
